<mxfile host="app.diagrams.net" modified="2024-04-29T08:21:41.561Z" agent="Mozilla/5.0 (Macintosh; Intel Mac OS X 10_15_7) AppleWebKit/537.36 (KHTML, like Gecko) Chrome/123.0.0.0 Safari/537.36" version="24.2.5" etag="7dc1Sh1yZ4xbawQIl6FD" type="github">
  <diagram name="第 1 页" id="J1EtU0LeemA6Bmx9q7pc">
    <mxGraphModel>
      <root>
        <mxCell id="0" />
        <mxCell id="1" parent="0" />
      </root>
    </mxGraphModel>
  </diagram>
</mxfile>
